# xmcd
#
# Track frame offsets: 
#        150
#        17259
#        26854
#        36898
#        49969
#
# Disc length: 793 seconds
#
# Revision: 0
# Processed by: cddbd v1.5.2PL0 Copyright (c) Steve Scherf et al.
# Submitted via: ExactAudioCopyFreeDBPlugin 1.0
#
DISCID=37031705
DTITLE=Geir Nordvik - Geir Nordvik EP
DYEAR=2015
DGENRE=Folk
TTITLE0=The Gamler
TTITLE1=Det Finnes Et Sted
TTITLE2=I Mårrå Tidlig
TTITLE3=Hold Mæ
TTITLE4=Elvira
EXTD=
EXTT0=
EXTT1=
EXTT2=
EXTT3=
EXTT4=
PLAYORDER=
